<mxfile host="app.diagrams.net" modified="2021-03-19T07:50:52.871Z" agent="5.0 (Windows NT 10.0; Win64; x64) AppleWebKit/537.36 (KHTML, like Gecko) Chrome/89.0.4389.90 Safari/537.36" etag="dCSeB1FMFX9YgKsuQvvQ" version="14.4.9" type="github">
  <diagram id="hZ2vIv_0rQPYr8Y93rUW" name="Page-1">
    <mxGraphModel dx="569" dy="305" grid="1" gridSize="10" guides="1" tooltips="1" connect="1" arrows="1" fold="1" page="1" pageScale="1" pageWidth="850" pageHeight="1100" math="0" shadow="0">
      <root>
        <mxCell id="0" />
        <mxCell id="1" parent="0" />
        <mxCell id="_bT4dvDDYb0MCCJgPrF7-1" value="1" style="ellipse;whiteSpace=wrap;html=1;aspect=fixed;" vertex="1" parent="1">
          <mxGeometry x="30" y="310" width="20" height="20" as="geometry" />
        </mxCell>
        <mxCell id="_bT4dvDDYb0MCCJgPrF7-12" style="orthogonalLoop=1;jettySize=auto;html=1;exitX=1;exitY=0.5;exitDx=0;exitDy=0;entryX=0;entryY=0.5;entryDx=0;entryDy=0;rounded=0;endArrow=none;endFill=0;" edge="1" parent="1" source="_bT4dvDDYb0MCCJgPrF7-2" target="_bT4dvDDYb0MCCJgPrF7-7">
          <mxGeometry relative="1" as="geometry" />
        </mxCell>
        <mxCell id="_bT4dvDDYb0MCCJgPrF7-16" style="edgeStyle=none;rounded=0;orthogonalLoop=1;jettySize=auto;html=1;exitX=1;exitY=1;exitDx=0;exitDy=0;endArrow=none;endFill=0;strokeColor=#000000;" edge="1" parent="1" source="_bT4dvDDYb0MCCJgPrF7-2">
          <mxGeometry relative="1" as="geometry">
            <mxPoint x="110" y="400" as="targetPoint" />
          </mxGeometry>
        </mxCell>
        <mxCell id="_bT4dvDDYb0MCCJgPrF7-2" value="2" style="ellipse;whiteSpace=wrap;html=1;aspect=fixed;" vertex="1" parent="1">
          <mxGeometry x="30" y="350" width="20" height="20" as="geometry" />
        </mxCell>
        <mxCell id="_bT4dvDDYb0MCCJgPrF7-3" value="" style="endArrow=none;dashed=1;html=1;dashPattern=1 3;strokeWidth=2;" edge="1" parent="1" source="_bT4dvDDYb0MCCJgPrF7-5">
          <mxGeometry width="50" height="50" relative="1" as="geometry">
            <mxPoint x="40" y="420" as="sourcePoint" />
            <mxPoint x="40" y="400" as="targetPoint" />
          </mxGeometry>
        </mxCell>
        <mxCell id="_bT4dvDDYb0MCCJgPrF7-14" style="edgeStyle=none;rounded=0;orthogonalLoop=1;jettySize=auto;html=1;exitX=1;exitY=0;exitDx=0;exitDy=0;endArrow=none;endFill=0;strokeColor=#000000;" edge="1" parent="1" source="_bT4dvDDYb0MCCJgPrF7-4">
          <mxGeometry relative="1" as="geometry">
            <mxPoint x="110" y="360" as="targetPoint" />
          </mxGeometry>
        </mxCell>
        <mxCell id="_bT4dvDDYb0MCCJgPrF7-18" style="edgeStyle=none;rounded=0;orthogonalLoop=1;jettySize=auto;html=1;exitX=1;exitY=0;exitDx=0;exitDy=0;endArrow=none;endFill=0;strokeColor=#000000;" edge="1" parent="1" source="_bT4dvDDYb0MCCJgPrF7-4">
          <mxGeometry relative="1" as="geometry">
            <mxPoint x="110" y="400" as="targetPoint" />
          </mxGeometry>
        </mxCell>
        <mxCell id="_bT4dvDDYb0MCCJgPrF7-4" value="16" style="ellipse;whiteSpace=wrap;html=1;aspect=fixed;" vertex="1" parent="1">
          <mxGeometry x="30" y="470" width="20" height="20" as="geometry" />
        </mxCell>
        <mxCell id="_bT4dvDDYb0MCCJgPrF7-13" style="edgeStyle=none;rounded=0;orthogonalLoop=1;jettySize=auto;html=1;exitX=1;exitY=0;exitDx=0;exitDy=0;entryX=0;entryY=0.5;entryDx=0;entryDy=0;endArrow=none;endFill=0;strokeColor=#000000;" edge="1" parent="1" source="_bT4dvDDYb0MCCJgPrF7-5" target="_bT4dvDDYb0MCCJgPrF7-7">
          <mxGeometry relative="1" as="geometry" />
        </mxCell>
        <mxCell id="_bT4dvDDYb0MCCJgPrF7-17" style="edgeStyle=none;rounded=0;orthogonalLoop=1;jettySize=auto;html=1;exitX=1;exitY=0.5;exitDx=0;exitDy=0;endArrow=none;endFill=0;strokeColor=#000000;" edge="1" parent="1" source="_bT4dvDDYb0MCCJgPrF7-5">
          <mxGeometry relative="1" as="geometry">
            <mxPoint x="110" y="399.8571428571428" as="targetPoint" />
          </mxGeometry>
        </mxCell>
        <mxCell id="_bT4dvDDYb0MCCJgPrF7-5" value="3" style="ellipse;whiteSpace=wrap;html=1;aspect=fixed;" vertex="1" parent="1">
          <mxGeometry x="30" y="390" width="20" height="20" as="geometry" />
        </mxCell>
        <mxCell id="_bT4dvDDYb0MCCJgPrF7-6" value="" style="endArrow=none;dashed=1;html=1;dashPattern=1 3;strokeWidth=2;" edge="1" parent="1">
          <mxGeometry width="50" height="50" relative="1" as="geometry">
            <mxPoint x="39.66000000000011" y="430.0000000000001" as="sourcePoint" />
            <mxPoint x="40" y="420" as="targetPoint" />
            <Array as="points">
              <mxPoint x="40" y="460" />
            </Array>
          </mxGeometry>
        </mxCell>
        <mxCell id="_bT4dvDDYb0MCCJgPrF7-19" style="edgeStyle=none;rounded=0;orthogonalLoop=1;jettySize=auto;html=1;endArrow=none;endFill=0;strokeColor=#000000;entryX=0;entryY=0.5;entryDx=0;entryDy=0;" edge="1" parent="1" source="_bT4dvDDYb0MCCJgPrF7-7" target="_bT4dvDDYb0MCCJgPrF7-20">
          <mxGeometry relative="1" as="geometry">
            <mxPoint x="180" y="360" as="targetPoint" />
          </mxGeometry>
        </mxCell>
        <mxCell id="_bT4dvDDYb0MCCJgPrF7-7" value="1" style="ellipse;whiteSpace=wrap;html=1;aspect=fixed;" vertex="1" parent="1">
          <mxGeometry x="110" y="350" width="20" height="20" as="geometry" />
        </mxCell>
        <mxCell id="_bT4dvDDYb0MCCJgPrF7-22" style="edgeStyle=none;rounded=0;orthogonalLoop=1;jettySize=auto;html=1;entryX=0;entryY=0.5;entryDx=0;entryDy=0;endArrow=none;endFill=0;strokeColor=#000000;" edge="1" parent="1" source="_bT4dvDDYb0MCCJgPrF7-8" target="_bT4dvDDYb0MCCJgPrF7-21">
          <mxGeometry relative="1" as="geometry" />
        </mxCell>
        <mxCell id="_bT4dvDDYb0MCCJgPrF7-8" value="2" style="ellipse;whiteSpace=wrap;html=1;aspect=fixed;" vertex="1" parent="1">
          <mxGeometry x="110" y="390" width="20" height="20" as="geometry" />
        </mxCell>
        <mxCell id="_bT4dvDDYb0MCCJgPrF7-11" value="" style="endArrow=none;html=1;entryX=0;entryY=0.5;entryDx=0;entryDy=0;" edge="1" parent="1" target="_bT4dvDDYb0MCCJgPrF7-7">
          <mxGeometry width="50" height="50" relative="1" as="geometry">
            <mxPoint x="47" y="327" as="sourcePoint" />
            <mxPoint x="90" y="350" as="targetPoint" />
          </mxGeometry>
        </mxCell>
        <mxCell id="_bT4dvDDYb0MCCJgPrF7-15" value="" style="endArrow=none;html=1;entryX=0;entryY=0.5;entryDx=0;entryDy=0;exitX=1;exitY=1;exitDx=0;exitDy=0;" edge="1" parent="1" source="_bT4dvDDYb0MCCJgPrF7-1" target="_bT4dvDDYb0MCCJgPrF7-8">
          <mxGeometry width="50" height="50" relative="1" as="geometry">
            <mxPoint x="57" y="337" as="sourcePoint" />
            <mxPoint x="120" y="370" as="targetPoint" />
          </mxGeometry>
        </mxCell>
        <mxCell id="_bT4dvDDYb0MCCJgPrF7-23" style="edgeStyle=none;rounded=0;orthogonalLoop=1;jettySize=auto;html=1;exitX=0;exitY=1;exitDx=0;exitDy=0;entryX=0;entryY=0;entryDx=0;entryDy=0;endArrow=classicThin;endFill=1;strokeColor=#000000;" edge="1" parent="1" source="_bT4dvDDYb0MCCJgPrF7-20" target="_bT4dvDDYb0MCCJgPrF7-21">
          <mxGeometry relative="1" as="geometry" />
        </mxCell>
        <mxCell id="_bT4dvDDYb0MCCJgPrF7-27" style="edgeStyle=none;rounded=0;orthogonalLoop=1;jettySize=auto;html=1;entryX=0;entryY=0.5;entryDx=0;entryDy=0;endArrow=none;endFill=0;strokeColor=#000000;" edge="1" parent="1" source="_bT4dvDDYb0MCCJgPrF7-20" target="_bT4dvDDYb0MCCJgPrF7-25">
          <mxGeometry relative="1" as="geometry" />
        </mxCell>
        <mxCell id="_bT4dvDDYb0MCCJgPrF7-20" value="1" style="ellipse;whiteSpace=wrap;html=1;aspect=fixed;" vertex="1" parent="1">
          <mxGeometry x="190" y="350" width="20" height="20" as="geometry" />
        </mxCell>
        <mxCell id="_bT4dvDDYb0MCCJgPrF7-24" style="edgeStyle=none;rounded=0;orthogonalLoop=1;jettySize=auto;html=1;exitX=1;exitY=0;exitDx=0;exitDy=0;entryX=1;entryY=1;entryDx=0;entryDy=0;endArrow=classicThin;endFill=1;strokeColor=#000000;" edge="1" parent="1" source="_bT4dvDDYb0MCCJgPrF7-21" target="_bT4dvDDYb0MCCJgPrF7-20">
          <mxGeometry relative="1" as="geometry" />
        </mxCell>
        <mxCell id="_bT4dvDDYb0MCCJgPrF7-28" style="edgeStyle=none;rounded=0;orthogonalLoop=1;jettySize=auto;html=1;entryX=0;entryY=0.5;entryDx=0;entryDy=0;endArrow=none;endFill=0;strokeColor=#000000;" edge="1" parent="1" source="_bT4dvDDYb0MCCJgPrF7-21" target="_bT4dvDDYb0MCCJgPrF7-26">
          <mxGeometry relative="1" as="geometry" />
        </mxCell>
        <mxCell id="_bT4dvDDYb0MCCJgPrF7-21" value="2" style="ellipse;whiteSpace=wrap;html=1;aspect=fixed;" vertex="1" parent="1">
          <mxGeometry x="190" y="390" width="20" height="20" as="geometry" />
        </mxCell>
        <mxCell id="_bT4dvDDYb0MCCJgPrF7-25" value="y&lt;sub&gt;1&lt;/sub&gt;" style="ellipse;whiteSpace=wrap;html=1;aspect=fixed;" vertex="1" parent="1">
          <mxGeometry x="270" y="350" width="20" height="20" as="geometry" />
        </mxCell>
        <mxCell id="_bT4dvDDYb0MCCJgPrF7-26" value="y&lt;sub&gt;2&lt;/sub&gt;" style="ellipse;whiteSpace=wrap;html=1;aspect=fixed;" vertex="1" parent="1">
          <mxGeometry x="270" y="390" width="20" height="20" as="geometry" />
        </mxCell>
        <mxCell id="_bT4dvDDYb0MCCJgPrF7-29" value="" style="endArrow=classicThin;html=1;strokeColor=#000000;endFill=1;entryX=0.5;entryY=0;entryDx=0;entryDy=0;" edge="1" parent="1" target="_bT4dvDDYb0MCCJgPrF7-20">
          <mxGeometry width="50" height="50" relative="1" as="geometry">
            <mxPoint x="230" y="360" as="sourcePoint" />
            <mxPoint x="190" y="360" as="targetPoint" />
            <Array as="points">
              <mxPoint x="230" y="320" />
              <mxPoint x="200" y="320" />
            </Array>
          </mxGeometry>
        </mxCell>
        <mxCell id="_bT4dvDDYb0MCCJgPrF7-30" value="" style="endArrow=classicThin;html=1;strokeColor=#000000;endFill=1;entryX=0.5;entryY=1;entryDx=0;entryDy=0;" edge="1" parent="1" target="_bT4dvDDYb0MCCJgPrF7-21">
          <mxGeometry width="50" height="50" relative="1" as="geometry">
            <mxPoint x="230" y="400" as="sourcePoint" />
            <mxPoint x="180" y="450" as="targetPoint" />
            <Array as="points">
              <mxPoint x="230" y="440" />
              <mxPoint x="200" y="440" />
            </Array>
          </mxGeometry>
        </mxCell>
      </root>
    </mxGraphModel>
  </diagram>
</mxfile>
